<?xml version="1.0" encoding="UTF-8"?>
<svg version="1.1" xmlns="http://www.w3.org/2000/svg" width="2000" height="2000">
  <defs>
    <clipPath id="rounded">
      <rect x="0" y="0" width="2000" height="2000" rx="160" ry="160" />
    </clipPath>
  </defs>
  <g clip-path="url(#rounded)">
<path d="M0 0 C660 0 1320 0 2000 0 C2000 660 2000 1320 2000 2000 C1340 2000 680 2000 0 2000 C0 1340 0 680 0 0 Z " fill="#000000" transform="translate(0,0)"/>
<path d="M0 0 C10.9920333 4.93519863 15.13773506 20.77911599 19.65872192 31.10626221 C27.7210795 49.45942877 36.5021597 66.91866384 47 84 C47.45600586 84.74604492 47.91201172 85.49208984 48.38183594 86.26074219 C50.31388413 89.40852979 52.27526789 92.53615892 54.2578125 95.65234375 C58.01535101 101.57747078 61.66388603 107.56994674 65.3125 113.5625 C65.67889587 114.16367645 66.04529175 114.76485291 66.42279053 115.38424683 C71.47462851 123.68528518 76.34050524 132.06809921 81.0625 140.5625 C85.27414683 148.12532893 89.57882667 155.23008065 95 162 C95.40992188 162.59425781 95.81984375 163.18851563 96.2421875 163.80078125 C101.23178824 170.73460573 109.59766427 172.90656593 117.33984375 175.48486328 C133.05984226 180.74506102 141.47880223 187.63977754 151 201 C151.41749512 201.58281738 151.83499023 202.16563477 152.26513672 202.76611328 C176.34357164 236.75863604 195.62153964 276.99425824 206.875 317.0625 C216.60124598 351.55273398 239.65842493 378.87055239 264.74609375 403.72265625 C268.00131739 407.0117297 270.99594532 410.48277667 274 414 C275.0002566 415.1493482 276.00166765 416.2976922 277.00390625 417.4453125 C285.24107374 426.88552563 293.33027541 436.41542051 300.9375 446.375 C301.66839844 447.33148437 302.39929687 448.28796875 303.15234375 449.2734375 C306.02349951 453.51036503 307.29671574 457.00520952 307.375 462.125 C307.40335938 462.97320313 307.43171875 463.82140625 307.4609375 464.6953125 C307 467 307 467 305.26953125 468.55957031 C302.87449934 470.07965296 300.9819187 470.72236964 298.2265625 471.3515625 C297.3190625 471.56296875 296.4115625 471.774375 295.4765625 471.9921875 C294.53554687 472.20101563 293.59453125 472.40984375 292.625 472.625 C291.69171875 472.8415625 290.7584375 473.058125 289.796875 473.28125 C281.01009311 475.2974804 272.82850079 476.2074466 263.8125 476.25 C262.2027832 476.2809375 262.2027832 476.2809375 260.56054688 476.3125 C250.80174176 476.35972955 242.65372444 474.53290328 234 470 C232.34000317 469.63489806 230.67358431 469.29665541 229 469 C229.27175049 469.60521484 229.54350098 470.21042969 229.82348633 470.83398438 C234.0077044 480.48868964 237.29670534 490.42364367 240.64294434 500.39227295 C242.4149087 505.66416202 244.20712599 510.92917461 245.99609375 516.1953125 C249.71707121 527.15866042 249.71707121 527.15866042 251.52392578 532.51855469 C259.71206063 556.75942429 270.52440458 578.95757535 283.3203125 601.08007812 C286.21516761 606.11241347 289.04337554 611.18190041 291.875 616.25 C292.45217773 617.28165283 293.02935547 618.31330566 293.62402344 619.3762207 C299.83352844 630.47970126 306.02521757 641.59300726 312.18505859 652.72412109 C313.39648968 654.9106939 314.61036427 657.09591468 315.82666016 659.27978516 C317.53624005 662.34992713 319.23782724 665.42436512 320.9375 668.5 C321.70924561 669.87998169 321.70924561 669.87998169 322.49658203 671.2878418 C322.9604834 672.1312915 323.42438477 672.97474121 323.90234375 673.84375 C324.51323853 674.94493164 324.51323853 674.94493164 325.13647461 676.06835938 C326 678 326 678 326 681 C320.86101873 680.35762734 316.01652042 679.28548336 311 678 C311.70125 679.0415625 312.4025 680.083125 313.125 681.15625 C336 715.53551765 336 715.53551765 336 731 C331.38 731.33 326.76 731.66 322 732 C322 732.66 322 733.32 322 734 C324.31940294 735.85373131 326.64435744 737.59632531 329.0625 739.3125 C329.71927734 739.78623047 330.37605469 740.25996094 331.05273438 740.74804688 C333.03030355 742.17228635 335.01431695 743.58710074 337 745 C338.33216452 745.95163639 339.66420403 746.9034478 340.99609375 747.85546875 C341.98738281 748.56316406 342.97867188 749.27085937 344 750 C342.32792152 753.66571051 340.12684747 756.26046779 337.4375 759.21875 C332.948073 764.78173562 333.21036688 771.14963236 333.7208252 778.00366211 C334.51501758 783.6828148 337.29398158 788.70778594 339.875 793.75 C340.47744712 794.97491978 341.07767722 796.20093223 341.67578125 797.42797852 C343.41412049 800.97105067 345.20508839 804.48526685 347 808 C347.8784072 809.76392325 348.7561018 811.52820169 349.6328125 813.29296875 C366.33816933 846.39375631 388.88733092 879.0395823 414.296875 906.0859375 C416.37568976 908.32697191 418.40076019 910.58922016 420.40625 912.89453125 C423.78322361 916.76956742 427.23333446 920.5639768 430.75 924.3125 C431.40033203 925.00746582 432.05066406 925.70243164 432.72070312 926.41845703 C437.40443544 931.37516114 442.19839778 936.20942941 447.046875 941.00390625 C447.65932068 941.61069717 448.27176636 942.2174881 448.902771 942.84266663 C451.99510555 945.90469757 455.09589801 948.95738357 458.20996094 951.99731445 C459.3589893 953.13075321 460.50776388 954.26444931 461.65625 955.3984375 C462.19610535 955.91962662 462.73596069 956.44081573 463.29217529 956.97779846 C464.58607599 958.26268748 465.80106838 959.62607068 467 961 C467 961.99 467 962.98 467 964 C462.38 964 457.76 964 453 964 C453.73863281 964.84820313 454.47726562 965.69640625 455.23828125 966.5703125 C461.88048589 974.23524436 468.28845004 982.03510057 474.49462891 990.05615234 C476.14164567 992.18290347 477.79497861 994.30464428 479.44921875 996.42578125 C486.33402263 1005.25736791 493.1903024 1014.11034223 500 1023 C500.47195801 1023.61601074 500.94391602 1024.23202148 501.43017578 1024.86669922 C504.68533563 1029.11681262 507.93569277 1033.37057145 511.18457031 1037.62548828 C513.09659659 1040.1263446 515.01301545 1042.6237966 516.9296875 1045.12109375 C524.03600203 1054.39540744 531.05335108 1063.7165518 537.83984375 1073.22827148 C538.33097656 1073.91606689 538.82210937 1074.6038623 539.328125 1075.3125 C539.78380859 1075.951875 540.23949219 1076.59125 540.70898438 1077.25 C541.86525199 1078.81734612 543.10760321 1080.32032171 544.359375 1081.8125 C546 1084 546 1084 546 1087 C543.36 1087.33 540.72 1087.66 538 1088 C541.61315632 1092.21110825 545.30161118 1096.32588079 549.12451172 1100.34838867 C558.97095302 1110.77638841 567.55852503 1122.17286561 575.5625 1134.0625 C575.9558252 1134.64499512 576.34915039 1135.22749023 576.75439453 1135.82763672 C581.68943882 1143.32127539 584.48830395 1149.99751363 585.9375 1158.875 C589.581429 1178.59783306 601.93593185 1189.12475064 615.91601562 1202.7890625 C621.74828989 1208.55233979 627.02691568 1214.4833958 632 1221 C632.83618747 1222.06332821 633.67326312 1223.12595936 634.51171875 1224.1875 C667.3695432 1266.66080989 694.42011573 1313.0774383 712 1363.875 C712.29802521 1364.73131012 712.59605042 1365.58762024 712.90310669 1366.46987915 C713.75689776 1368.93267554 714.59912135 1371.39910752 715.4375 1373.8671875 C715.69643539 1374.61227066 715.95537079 1375.35735382 716.22215271 1376.12501526 C717.47337649 1379.85453428 718.31724709 1383.05472289 718 1387 C715.36 1387 712.72 1387 710 1387 C710.35078613 1387.4854126 710.70157227 1387.9708252 711.06298828 1388.47094727 C718.30131087 1398.53355219 725.23345623 1408.72653395 731.6875 1419.3125 C732.2748291 1420.27164307 732.8621582 1421.23078613 733.46728516 1422.21899414 C741 1434.71439988 741 1434.71439988 741 1443 C735.72 1442.67 730.44 1442.34 725 1442 C727.21949869 1467.64754036 742.03408 1487.65604934 757.24023438 1507.68164062 C758.9561414 1509.94221958 760.65878599 1512.21226018 762.359375 1514.484375 C768.82346416 1523.07721193 775.58860403 1531.32148645 782.64501953 1539.43164062 C799.56828037 1559.0199339 816.18228563 1581.58545089 823 1607 C823.26707764 1607.90890991 823.26707764 1607.90890991 823.53955078 1608.83618164 C825.43697711 1616.03052014 825.22334143 1623.16798057 825.125 1630.5625 C825.11597656 1631.85736328 825.10695313 1633.15222656 825.09765625 1634.48632812 C825.07425094 1637.65774771 825.04146228 1640.82877373 825 1644 C820.25 1642.125 820.25 1642.125 818 1641 C817.87625 1641.77859375 817.7525 1642.5571875 817.625 1643.359375 C812.73895563 1669.86616569 797.76760983 1698.16021083 775.625 1714.125 C772.79929622 1716.04868759 770.41517585 1717.50352069 767 1718 C766 1717 766 1717 765.9375 1714.4375 C765.9684375 1713.2309375 765.9684375 1713.2309375 766 1712 C765.10539062 1712.72445313 764.21078125 1713.44890625 763.2890625 1714.1953125 C743.64380863 1729.97597104 722.143709 1738.2466992 698 1745 C696.63524536 1745.39106934 696.63524536 1745.39106934 695.24291992 1745.79003906 C689.06025032 1747.53145195 682.88816755 1748.89399258 676.5625 1750 C675.13599121 1750.25209229 675.13599121 1750.25209229 673.68066406 1750.50927734 C670.78849465 1751.01466307 667.89463297 1751.50894171 665 1752 C664.16259277 1752.14469727 663.32518555 1752.28939453 662.46240234 1752.43847656 C648.04057968 1754.90080996 633.60231002 1756.18993149 619 1757 C618.19596741 1757.04489563 617.39193481 1757.08979126 616.5635376 1757.13604736 C577.04826266 1759.30381177 537.55823183 1759.23004279 498 1759 C498.72366315 1755.65569263 499.81715496 1753.65737657 502 1751 C493.65177043 1751.33193756 485.59680752 1752.53089444 477.375 1753.9375 C466.41747772 1755.76990548 455.53591963 1756.86092692 444.44995117 1757.52807617 C439.78228736 1757.81500673 435.12124139 1758.14118136 430.4597168 1758.51416016 C404.86865115 1760.44881551 379.26040002 1760.30621685 353.61010742 1760.26074219 C347.13066967 1760.24937867 340.65139671 1760.25611169 334.17196465 1760.26760864 C311.15464292 1760.30242401 288.14487949 1760.32116928 265.15234375 1759.140625 C264.02232909 1759.08558178 264.02232909 1759.08558178 262.86948586 1759.02942657 C251.07373913 1758.43167702 239.77710699 1756.65916841 228.36914062 1753.6015625 C224.28178577 1752.56371807 220.14217569 1751.78501795 216 1751 C216 1750.01 216 1749.02 216 1748 C214.81784912 1748.00523682 213.63569824 1748.01047363 212.41772461 1748.01586914 C199.27823965 1748.06862702 186.13943606 1748.06718749 173 1748 C171.79037598 1747.99419922 170.58075195 1747.98839844 169.33447266 1747.98242188 C141.71210876 1747.70716165 113.70258023 1742.97926575 86.68359375 1737.53466797 C84.26147015 1737.05209422 81.83673783 1736.59827226 79.40625 1736.16015625 C68.29441292 1734.10446639 58.69279288 1730.83960855 49 1725 C49.33 1724.01 49.66 1723.02 50 1722 C50.99 1721.67 51.98 1721.34 53 1721 C48.1206194 1719.8253343 43.25974129 1718.86469144 38.29980469 1718.09155273 C-23.88302393 1708.32574927 -23.88302393 1708.32574927 -40 1691 C-40 1690.01 -40 1689.02 -40 1688 C-39.04746338 1687.89453857 -38.09492676 1687.78907715 -37.11352539 1687.68041992 C-33.53961063 1687.28208366 -29.96728054 1686.8707932 -26.39526367 1686.45581055 C-24.85659658 1686.27883565 -23.31753456 1686.10525683 -21.77807617 1685.93530273 C-8.50433745 1684.5158682 -8.50433745 1684.5158682 4 1680 C1.69 1679.34 -0.62 1678.68 -3 1678 C-1.66505845 1669.82799291 8.18619969 1664.12141383 14.22265625 1659.27734375 C16.83524253 1657.13509649 19.32809016 1654.91359429 21.8125 1652.625 C27.34617043 1647.58962217 33.2109424 1643.03082476 39.12402344 1638.45556641 C42.38691524 1635.92389528 45.6297009 1633.36665519 48.875 1630.8125 C50.05980941 1629.88140043 51.24469698 1628.95040031 52.4296875 1628.01953125 C53.70199219 1627.01986328 53.70199219 1627.01986328 55 1626 C51.04 1625.67 47.08 1625.34 43 1625 C44.12767792 1619.36161038 44.12767792 1619.36161038 46.97265625 1617.125 C47.61267578 1616.62121826 48.25269531 1616.11743652 48.91210938 1615.59838867 C49.97655273 1614.80718628 49.97655273 1614.80718628 51.0625 1614 C51.80693359 1613.43966064 52.55136719 1612.87932129 53.31835938 1612.30200195 C68.20458965 1601.45929991 85.25200896 1593.53204488 102 1586 C99.69 1584.68 97.38 1583.36 95 1582 C95 1581.34 95 1580.68 95 1580 C108.10567338 1574.10923494 121.16432567 1568.9029174 135 1565 C135.69963867 1564.80035645 136.39927734 1564.60071289 137.12011719 1564.39501953 C173.67202734 1554.12616853 216.11118317 1555.17351835 253 1563 C252.63874023 1562.4738208 252.27748047 1561.9476416 251.90527344 1561.40551758 C229.86428487 1529.16900539 207.19749074 1493.37764508 207.66381836 1453.05615234 C207.68756413 1450.869093 207.68432661 1448.68325118 207.67773438 1446.49609375 C207.69375171 1438.85491208 208.22903173 1431.50713322 209.53051758 1423.96191406 C211.53310541 1411.32780301 211.67496717 1398.71665923 204 1388 C203.54367187 1387.34257813 203.08734375 1386.68515625 202.6171875 1386.0078125 C197.56262862 1379.50909394 190.25976275 1373.81662768 183 1370 C179.29106092 1369.74900133 179.29106092 1369.74900133 176 1370 C173.84511917 1374.30976165 174.47518997 1380.0045014 175.671875 1384.5546875 C176.20079037 1386.07656664 176.75571713 1387.58981544 177.34375 1389.08984375 C178 1391 178 1391 178 1394 C166.96689911 1391.82872614 157.34317323 1382.05960812 149 1375 C151.09766632 1378.2630365 153.21191415 1381.31420839 155.75 1384.25 C158 1387 158 1387 158 1389 C151.80624848 1388.46910701 146.31193336 1387.44712269 140.4375 1385.4375 C139.67026611 1385.18081543 138.90303223 1384.92413086 138.11254883 1384.65966797 C131.86198235 1382.48438613 126.01141804 1379.72647507 120.21459961 1376.54077148 C115.35371633 1373.90815538 115.35371633 1373.90815538 110 1374 C106.09689744 1377.09563 104.89180402 1380.51914591 103.609375 1385.16796875 C103.18316325 1386.6155208 102.75537541 1388.06260954 102.32617188 1389.50927734 C102.10856201 1390.2536908 101.89095215 1390.99810425 101.66674805 1391.76507568 C100.60558885 1395.32205721 99.44185551 1398.84295257 98.265625 1402.36328125 C98.02732468 1403.07653061 97.78902435 1403.78977997 97.54350281 1404.52464294 C96.78333812 1406.78875408 96.01788373 1409.05099549 95.25 1411.3125 C94.9794278 1412.10993622 94.70885559 1412.90737244 94.43008423 1413.72897339 C88.53897739 1431.00699169 81.85378648 1447.94670773 75.04296875 1464.87890625 C72.19285412 1471.96663041 69.39813288 1479.0736926 66.6640625 1486.20703125 C66.33766281 1487.05326553 66.01126312 1487.89949982 65.67497253 1488.77137756 C62.90867834 1496.03173564 60.6095406 1503.38800104 58.57983398 1510.88745117 C58.1582439 1512.42345917 57.71769898 1513.95430326 57.26586914 1515.48168945 C54.9053407 1523.64287917 53.735923 1531.83096058 52.62695312 1540.24023438 C49.21587801 1564.26048301 35.57767091 1580.40702839 17 1595 C7.12576724 1602.97138582 0.18577401 1612.89491706 -6.75 1623.4375 C-7.44536865 1624.48808594 -8.1407373 1625.53867188 -8.85717773 1626.62109375 C-16.39326913 1638.04524333 -23.68311296 1649.61525133 -30.86328125 1661.265625 C-31.86186157 1662.87920898 -31.86186157 1662.87920898 -32.88061523 1664.52539062 C-34.17592115 1666.61969844 -35.46610202 1668.71718789 -36.75024414 1670.81835938 C-45.00707329 1684.16155615 -53.62353288 1691.63982371 -69 1696 C-80.80233034 1698.58659996 -92.87797805 1699.12641797 -104.91796875 1699.53515625 C-106.74029778 1699.59962196 -106.74029778 1699.59962196 -108.59944153 1699.66539001 C-111.16348966 1699.75512816 -113.72759369 1699.84328191 -116.29174805 1699.92993164 C-120.13155517 1700.06059626 -123.97103309 1700.19890482 -127.81054688 1700.33789062 C-187.17241546 1702.42004926 -187.17241546 1702.42004926 -208 1696 C-208.9595459 1695.70536865 -208.9595459 1695.70536865 -209.93847656 1695.40478516 C-217.85578922 1692.90511294 -217.85578922 1692.90511294 -221 1691 C-222.046875 1688.78515625 -222.046875 1688.78515625 -222 1686 C-221.04514135 1683.45563344 -220.07212295 1681.25400955 -218.8125 1678.875 C-218.50763672 1678.25496094 -218.20277344 1677.63492187 -217.88867188 1676.99609375 C-216.0511281 1673.41346123 -214.33236509 1671.22397584 -211 1669 C-210.20376178 1666.90584196 -210.20376178 1666.90584196 -210 1665 C-212.31 1665 -214.62 1665 -217 1665 C-216.21551648 1652.64438453 -210.35007532 1640.26976092 -201.234375 1631.71875 C-188.1448743 1621.64990331 -171.53055805 1614.15787326 -155.0625 1613 C-139.9036735 1611.74214784 -139.9036735 1611.74214784 -128 1603 C-108.58257983 1577.36900537 -99.6743361 1540.78140282 -92.66552734 1509.91796875 C-92.07863602 1507.34477538 -91.46333304 1504.78131878 -90.83203125 1502.21875 C-88.34128479 1491.89284333 -86.77935651 1481.46282678 -85.3059082 1470.94702148 C-85.07133911 1469.27361694 -85.07133911 1469.27361694 -84.83203125 1467.56640625 C-84.69514893 1466.56552979 -84.5582666 1465.56465332 -84.41723633 1464.53344727 C-84 1462 -84 1462 -83 1459 C-82.75010281 1457.27538764 -82.53944539 1455.54496541 -82.3515625 1453.8125 C-82.23466064 1452.74161133 -82.11775879 1451.67072266 -81.99731445 1450.56738281 C-81.53173244 1446.10634385 -81.07241643 1441.6447126 -80.62730408 1437.18157959 C-80.16538561 1432.55946513 -79.65687325 1427.94412805 -79.13671875 1423.328125 C-74.44697172 1379.08908687 -76.53343688 1334.25513924 -80 1290 C-80.06507751 1289.16494934 -80.13015503 1288.32989868 -80.19720459 1287.46954346 C-81.36938153 1272.57888796 -82.7617494 1257.74454255 -85.32421875 1243.01953125 C-85.98246373 1239.23484774 -86.43633962 1235.44175527 -86.875 1231.625 C-89.46858796 1212.14196721 -95.81008932 1193.57807424 -102 1175 C-102.63826986 1173.07169699 -103.27631003 1171.14331794 -103.9140625 1169.21484375 C-105.26504863 1165.13947839 -106.6277698 1161.06825893 -108 1157 C-109.99097846 1159.98646769 -110.94124926 1162.59687262 -112 1166 C-112.99 1165.67 -113.98 1165.34 -115 1165 C-115.90380859 1162.70947266 -115.90380859 1162.70947266 -116.6484375 1159.6640625 C-116.93203125 1158.53484375 -117.215625 1157.405625 -117.5078125 1156.2421875 C-117.79398438 1155.04851562 -118.08015625 1153.85484375 -118.375 1152.625 C-118.94463722 1150.32535346 -119.51496648 1148.02587824 -120.0859375 1145.7265625 C-120.53864014 1143.87417969 -120.53864014 1143.87417969 -121.00048828 1141.984375 C-121.68351697 1139.22440608 -122.40467643 1136.47765893 -123.15185547 1133.734375 C-126.74737138 1120.50932164 -129.62178711 1107.17322245 -132.375 1093.75 C-132.61499725 1092.58650024 -132.85499451 1091.42300049 -133.1022644 1090.22424316 C-137.0523935 1071.05186871 -140.70136564 1051.8473107 -144.03417969 1032.55908203 C-145.172871 1025.98260486 -146.34186598 1019.41153257 -147.5078125 1012.83984375 C-148.18016809 1009.04106152 -148.85195572 1005.24217947 -149.52340698 1001.4432373 C-149.9569743 998.99122393 -150.39113148 996.53931476 -150.82595825 994.08752441 C-153.60002135 978.42590088 -156.17482964 962.74664601 -158.54138184 947.01829529 C-159.1977515 942.69854169 -159.87750592 938.38254805 -160.55686951 934.06636047 C-162.96742373 918.74584035 -165.01843967 903.38111842 -167 888 C-167.12149414 887.07670898 -167.24298828 886.15341797 -167.36816406 885.20214844 C-168.47411565 876.78040965 -169.33081045 868.50917993 -169 860 C-169.66 860 -170.32 860 -171 860 C-171.495 862.475 -171.495 862.475 -172 865 C-172.99 865.33 -173.98 865.66 -175 866 C-177.73756734 856.36026821 -179.65940379 846.71382358 -181.1875 836.8125 C-181.35411133 835.74531738 -181.52072266 834.67813477 -181.69238281 833.57861328 C-183.53976443 821.21026056 -184.15277956 808.96594396 -184.1328125 796.46875 C-184.13348958 795.10274234 -184.13446292 793.7367348 -184.13571167 792.37072754 C-184.1371737 789.52350708 -184.1350855 786.67631829 -184.13037109 783.82910156 C-184.12471736 780.24685503 -184.12804845 776.66468333 -184.13378334 773.08243942 C-184.16743232 748.76339066 -183.07224778 724.92968714 -180.375 700.75 C-180.01122262 697.47792835 -179.64937994 694.2057103 -179.29434204 690.93267822 C-179.07587742 688.9188843 -178.8524066 686.90562574 -178.62338257 684.89300537 C-178.52643097 683.99986633 -178.42947937 683.10672729 -178.32958984 682.18652344 C-178.24156097 681.39936951 -178.1535321 680.61221558 -178.06283569 679.8012085 C-178.04209991 679.20680969 -178.02136414 678.61241089 -178 678 C-178.33 677.67 -178.66 677.34 -179 677 C-179.99 678.32 -180.98 679.64 -182 681 C-182.99 680.67 -183.98 680.34 -185 680 C-183.83575828 643.26959355 -180.74736918 608.12810989 -172.64208984 572.27294922 C-172.46819733 571.49666672 -172.29430481 570.72038422 -172.11514282 569.920578 C-171.78734364 568.46061268 -171.45507916 567.00163991 -171.11752319 565.54389954 C-170.31520644 561.9647774 -169.81731782 558.67004951 -170 555 C-170.40992188 555.5053125 -170.81984375 556.010625 -171.2421875 556.53125 C-172.05042969 557.50578125 -172.05042969 557.50578125 -172.875 558.5 C-173.67550781 559.47453125 -173.67550781 559.47453125 -174.4921875 560.46875 C-174.98976563 560.9740625 -175.48734375 561.479375 -176 562 C-176.66 562 -177.32 562 -178 562 C-179.12358257 529.70453463 -161.79340707 495.96282617 -150.00180054 466.52554321 C-145.45190898 455.15397447 -141.02443662 443.73433102 -136.58618164 432.31884766 C-135.92996149 430.63179267 -135.27363242 428.94478004 -134.6171875 427.2578125 C-134.30222824 426.4483316 -133.98726898 425.63885071 -133.6627655 424.80484009 C-131.84725684 420.14733643 -130.00489395 415.50224013 -128.1328125 410.8671875 C-121.02056271 393.2165118 -116.80912777 377.13084912 -116.86962891 357.96362305 C-116.87499718 355.9385635 -116.86965319 353.91372477 -116.86328125 351.88867188 C-116.86457031 350.59380859 -116.86585938 349.29894531 -116.8671875 347.96484375 C-116.86887939 346.21095337 -116.86887939 346.21095337 -116.87060547 344.42163086 C-116.92951474 341.03332494 -116.92951474 341.03332494 -117.50495911 337.85726929 C-118.06672542 333.4800876 -118.10276347 329.26687672 -118.05004883 324.86206055 C-118.04376968 323.973116 -118.03749054 323.08417145 -118.03102112 322.16828918 C-118.01722298 320.24605948 -118.00129968 318.32384409 -117.98346901 316.40164757 C-117.95664171 313.34229596 -117.93888649 310.28301885 -117.92399597 307.22358704 C-117.88146071 298.52709645 -117.83421325 289.83074958 -117.75317383 281.13452148 C-117.70415511 275.8031217 -117.67551419 270.47192584 -117.65942955 265.14032936 C-117.64964206 263.12603637 -117.63260451 261.11176306 -117.60764503 259.09760094 C-117.41777346 243.41381738 -118.43941254 227.79361985 -125.4375 213.4375 C-125.93032471 212.37474854 -125.93032471 212.37474854 -126.43310547 211.29052734 C-130.63038303 202.39607175 -135.25873914 193.70234961 -139.8515625 185.0078125 C-142.02828962 180.86457179 -144.20070024 176.71948241 -146.3359375 172.5546875 C-146.82368652 171.60835449 -147.31143555 170.66202148 -147.81396484 169.68701172 C-155.2243317 152.89851899 -149.57865369 125.43003489 -144 109 C-139.45631068 98.45631068 -139.45631068 98.45631068 -136 95 C-133.06972442 94.37653711 -131.83083165 94.22202322 -129 95 C-126.02781026 96.96046979 -123.29358584 99.07815033 -120.55078125 101.34765625 C-118.21042789 103.20938721 -118.21042789 103.20938721 -115.88671875 102.92578125 C-113.77617003 101.89017039 -112.26286256 100.67910252 -110.5 99.125 C-105.53865821 95.21606404 -100.10555218 94.16005491 -94 93 C-93.67 93.66 -93.34 94.32 -93 95 C-94.1796875 97.27734375 -94.1796875 97.27734375 -95.875 99.9375 C-98.95147922 104.79547533 -100.71513265 108.85118353 -100.66796875 114.65234375 C-99.49003413 118.79233619 -96.26366298 120.34999988 -92.7265625 122.4921875 C-91.82679688 122.98976563 -90.92703125 123.48734375 -90 124 C-88.92878906 124.65355469 -88.92878906 124.65355469 -87.8359375 125.3203125 C-83.35012014 127.87597737 -79.16469167 129.04847124 -74 128 C-69.3973346 126.67171401 -66.06698673 124.79592368 -63.57519531 120.60180664 C-59.32402066 110.04483974 -58.47311716 99.37287464 -57.4375 88.125 C-54.22675275 54.06191655 -43.70488315 32.12965815 -17.1796875 9.72265625 C-16.63425293 9.27414307 -16.08881836 8.82562988 -15.52685547 8.36352539 C-13.90276071 6.91316255 -12.55984675 5.37613953 -11.1875 3.6875 C-7.74335555 -0.54387747 -5.35792569 -0.44649381 0 0 Z " fill="#FEFEFE" transform="translate(754,120)"/>
  </g>
</svg>
